<svg id="gw2-logotype" xmlns="http://www.w3.org/2000/svg" viewBox="0 0 351.49 53.3"><style>path{fill:#9d9d9d}</style><path class="cls-1" d="M94.61 43.86c-.55-.58-1-1.21-1-3.94V11.09c0-2.72.44-3.36 1-3.94 1-1 2-1.12 2.09-1.45s-.29-.58-1.1-.51c-1.4.11-3.08.25-5.36.25s-4-.14-5.36-.25c-.81-.06-1.24.11-1.1.51s1.11.42 2.09 1.45 1 2.35 1 4.91v26.89c0 3.56-.4 4.28-1 4.92-1 1-2 1.12-2.09 1.45s.29.58 1.1.51c1.4-.11 3.08-.25 5.36-.25s4 .14 5.36.25c.81.06 1.24-.11 1.1-.51s-1.11-.43-2.09-1.46zm31.57-5.72c-.33.12-.45 1.08-1.45 2.1-1.17 1.19-4 2.48-9.5 2.48-2.2 0-3.8-.74-3.8-3.27V11.11c0-2.74.44-3.37 1-4 1-1 2-1.12 2.09-1.45s-.29-.58-1.1-.51c-1.4.11-3.08.25-5.36.25s-4-.14-5.36-.25c-.81-.06-1.24.11-1.1.51s1.07.46 2.09 1.45c.84.81 1 2.34 1 4.91V39c0 3.56-.4 4.28-1 4.92-1 1-2 1.12-2.09 1.45s.29.57 1.1.51c3.13-.21 7.9-.33 9.35-.31 3.6.06 8.54.35 9.45.4a10.45 10.45 0 003.26-.15 1.75 1.75 0 00.77-1.33c.58-3 1-3.81 1.15-5.21.08-.85-.09-1.28-.5-1.14zM79.2 5.2c-1.4.11-2.33.25-3.63.25s-2.24-.14-3.63-.25c-.81-.06-1.24.11-1.1.51S72.06 6 73 7c.6.62.93 1.44.93 4.73v20.88C73.93 40.1 68.18 43 63.08 43s-9.3-3.41-9.3-9.23V11.12c0-2.74.44-3.38 1-4 1-1 2-1.12 2.09-1.45s-.29-.58-1.1-.51c-1.4.11-3.08.25-5.36.25s-4-.14-5.36-.25c-.81-.06-1.24.11-1.1.51s1.11.42 2.09 1.45 1 2.51 1 4.91v20.43C47 42 54.79 46.69 61.84 46.69c11.56 0 15.35-7.78 15.35-14.09V12.08c0-3.56.31-4.42.93-5.06 1-1 2.06-1 2.17-1.3S80 5.14 79.2 5.2zM42.15 22.11c-1.4.11-3.08.25-5.36.25s-4-.14-5.36-.25c-.81-.06-1.24.11-1.1.51s1.11.42 2.09 1.45c.84.88 1 2.38 1 4.86v10.21c0 1.37.3 1.77 1.72 2.76a16 16 0 014 3.65c.17.25.43.42.64.35s.32-.91.32-.91V28c0-2.73.44-3.36 1-3.94 1-1 2-1.12 2.09-1.45s-.19-.56-1.04-.5z"/><path class="cls-1" d="M23.84 3c5.39 0 8 1.29 10.57 3.41a16 16 0 013.88 5c.79 1.65.66 2.13 1.11 2.32.25.11.73-.12.73-1.1v-7c0-1.09-.7-1.49-4.13-2.93A32.33 32.33 0 0023.84.22C9.89.22 0 10.6 0 23.4c0 11.43 7.85 20.73 15.94 23.11.27.08.62.18.8.21.42.07.49-.31.49-1.27 0-.35-.07-.51-.58-1-5.06-4.56-8.58-12.81-8.58-20.77C8.08 12 14.88 3 23.84 3zm196.45-2c-1.06.08-2.29.18-3.82.23A27.71 27.71 0 01213.4 1c-.81-.06-1.24.11-1.1.51s1.07.91 1.25 1.48c.24.75.3 1.43-.39 3.51l-10.49 29.43-12-28.85c-.9-2.53-.85-3.26-.59-4.08.18-.57 1.13-1.16 1.25-1.48S191 .94 190.19 1c-1.4.11-3.08.25-5.36.25s-4-.14-5.36-.25c-.81-.06-1.24.11-1.1.51s1.12.42 2.1 1.45a17.79 17.79 0 013.06 4.65c.23.5.46 1 .67 1.51l.56 1.34.35.85v.09l15.13 36.1c.36.84 1 1.39 1.45.17l14.4-39.79c1.33-3.51 2.44-4.32 3-4.88 1-1 2.18-1.16 2.3-1.49s-.29-.57-1.1-.51zm-29.24 30.77c-.34-.15-.81.2-1.23.87l-2.47 3.95-12.3-29.4c-.94-2.62-.89-3.36-.62-4.18.18-.57 1.13-1.16 1.25-1.48s-.29-.58-1.1-.51c-1.4.11-3.08.25-5.36.25s-4-.14-5.36-.25c-.81-.06-1.24.11-1.1.51s1.11.42 2.1 1.45a17.58 17.58 0 013 4.51c.25.54.5 1.09.73 1.64l.58 1.37.34.83v.09l15.09 36c.21.51.51.92.83.92s.58-.3.71-.68l4.86-13.9c.27-.93.48-1.76.05-1.99zM143.76 4.91c-5.6 0-6.35.52-10.78.52-1.75 0-3.13-.15-4.3-.24-.81-.06-1.24.11-1.1.51s1.11.42 2.09 1.45c.83.87 1 2.23 1 4.91v33.16c0 .45.09.82.32.91s.52-.12.71-.35.65-.79 1.28-1.44a16.7 16.7 0 012.69-2.22c1.45-1.06 1.72-1.43 1.72-2.9V11.9c0-.71.06-2.22.11-2.68a10.92 10.92 0 016.24-1.47c8.4 0 15.2 6.22 15.2 18 0 7.93-3 14.92-7.7 17.9-.52.36-.66.62-.66 1 0 1 0 1.26.45 1.15l.31-.09c9-2.78 15.44-10.21 15.44-20.33.03-13.22-9.78-20.47-23.02-20.47zM338.4 36c-.33.12-1 1.14-2.06 2.11-1.33 1.19-4.25 2.35-8.82 2.35h-11.58c8.64-11.67 20.12-20.21 20.12-28.56 0-7.6-4.17-11.89-13.94-11.89-3.06 0-8 1.38-12.35 3.9a1.36 1.36 0 00-.85 1.32V12c0 1.27.48 1.4.73 1.29s.34-.41.57-1.08a18 18 0 014.88-6.88 9.3 9.3 0 016.52-2.51c5.67 0 7.39 4.11 7.39 8.42 0 6.64-5.49 13.18-10 19.27-6.11 8.32-10 13.36-11.46 15.29-.15.2-.22.4-.14.53s.41.18.89.16c2.72-.15 9.13-.5 13.88-.4 3.6.07 8.94.37 9.85.41a10.48 10.48 0 003.26-.15c.45-.22.85-1.19 1-1.74 1.21-3.65 2.31-5.45 2.55-7.55.16-.77-.04-1.21-.44-1.06zm-45.93-14c-6.49-4.67-8.12-6.66-8.12-9.38 0-2 1.57-4.45 5.54-4.93a9 9 0 019.22 4.19c1.12 1.91.83 3.76 1.32 4.17.21.18.7-.08.72-1.08v-7c0-1.08-.87-1.4-2.85-2a29.88 29.88 0 00-7.94-1.24c-5.79 0-11.17 2.42-12.22 8-.75 4 .22 8.29 8.06 14.1 6.8 5 9.42 7.2 9.42 10.6s-2.73 6.26-7.76 6.26q-.91 0-1.78-.08c-.38 0-.51.12-.4.36s.61 1.13.72 1.31a.94.94 0 00.6.44 19.13 19.13 0 002.81.13c5.61 0 12.87-3.11 12.87-10.25.02-4.47-2.05-7.76-10.21-13.6zm-10.12 30.11l-13.58-22.32a13.31 13.31 0 005.94-11.23c0-9-6.25-13.48-17-13.48-5 0-5.37.3-8.5.37-2.23 0-3.89-.14-5.26-.25-.81-.06-1.24.11-1.1.51s1.11.42 2.09 1.45 1 2.45 1 4.91V39a15 15 0 01-.34 3.54c-.33 1.24-1.39 1.35-2.21.53s-1.14-1.76-2.19-3.94L227 5.1c-.36-.59-.83-.88-1.28.15L213.5 38.91a10.88 10.88 0 01-3.24 5.09c-1 1-1.9.83-2.06 1.29s.29.58 1.1.52c1.06-.08 2.29-.18 3.82-.23a26.73 26.73 0 013.08.23c.81.06 1.24-.11 1.1-.52s-1.07-.91-1.25-1.48-.35-1.4.32-3.29L224.73 17 232 34.41l-7.67.12c-.66 0-.79.25-1 .82-.35 1-.4 1.23-.27 1.4s.89.21 1.25.21h8.76l1.41 3.37c.71 2.11.64 2.79.41 3.54-.18.57-1.13 1.16-1.25 1.48s.29.58 1.1.51c1.4-.11 3.08-.25 5.36-.25 1.66 0 3.39.12 4.53.1 2.14 0 3.59-.16 4.7-.16 2.28 0 4 .14 5.36.25.81.06 1.24-.11 1.1-.51s-1.11-.42-2.09-1.45c-.55-.57-.92-1.21-1-3.9V11.27a22.58 22.58 0 01.17-2.7 14.55 14.55 0 014.61-.53c5.07 0 9.62 3.18 9.62 10.51 0 6.88-2.78 11.29-8.92 13.43-.6.21-.71.28-.75.73-.07.74 0 1.16.89 1.07a23.53 23.53 0 004-.88c1.42 1.54 4.28 4.62 8.39 9.11 3.4 3.72 10.37 10.51 10.37 10.51.69.64 1.18.89 1.43.71s.19-.54-.16-1.12zm69.14-42.16a5.1 5.1 0 01-1.56 3.74 5.27 5.27 0 01-7.48 0 5.1 5.1 0 01-1.56-3.74 5.11 5.11 0 011.56-3.74 5.26 5.26 0 017.48 0 5.11 5.11 0 011.56 3.74zm-.75 0a4.38 4.38 0 00-1.33-3.21 4.53 4.53 0 00-6.42 0 4.38 4.38 0 00-1.34 3.21 4.39 4.39 0 001.35 3.21 4.53 4.53 0 006.42 0 4.38 4.38 0 001.32-3.21zm-2 3.08h-1l-1.18-2.63h-1.7V13h-.91V6.87h2.6a2.11 2.11 0 011.58.54 1.7 1.7 0 01.52 1.2 1.73 1.73 0 01-.29.94 1.56 1.56 0 01-.9.64zm-3.94-3.34h1.6a1.25 1.25 0 00.93-.31 1.06 1.06 0 00.31-.77.85.85 0 00-.32-.72 1.32 1.32 0 00-.82-.24h-1.7z"/></svg>